<svg height="48" viewBox="0 0 48 48" width="48" xmlns="http://www.w3.org/2000/svg"><path d="m0 0h48v48h-48z" fill="none"/><path d="m46 9c0-6.8-19.7-7-22-7s-22 .2-22 7v30c0 6.8 19.7 7 22 7s22-.2 22-7v-29.7zm-4 9.8c-1 1.2-7.6 3.2-18 3.2s-17-2-18-3.2v-5.4c5.9 2.5 16.4 2.6 18 2.6s12.1-.1 18-2.6zm0 10c-1 1.2-7.6 3.2-18 3.2s-17-2-18-3.2v-5.4c5.9 2.5 16.4 2.6 18 2.6s12.1-.1 18-2.6zm-18-22.8c9.8 0 16.3 1.8 17.8 3-1.5 1.2-8 3-17.8 3s-16.3-1.8-17.8-3c1.5-1.2 8-3 17.8-3zm0 36c-10.4 0-17-2-18-3.2v-5.4c5.9 2.5 16.4 2.6 18 2.6s12.1-.1 18-2.6v5.4c-1 1.2-7.6 3.2-18 3.2z"/></svg>